# xmcd
#
# Track frame offsets:
#	150
#	14941
#	31492
#	50230
#	68727
#	86110
#	102649
#	119212
#	133345
#	145407
#	163416
#	179611
#	194074
#	210875
#	226220
#	237799
#	256807
#	278459
#	293047
#	308340
#
# Disc length: 4260 seconds
#
# Revision: 1
# Processed by: cddbd v1.5.2PL0 Copyright (c) Steve Scherf et al.
# Submitted via: audiograbber 1.83.01
#
DISCID=3a10a214
DTITLE=Various Artist - The Ray Hadley Country Music Collection [Disc 2]
DYEAR=2009
DGENRE=Country
TTITLE0=Toby Keith - Courtesy Of The Red, White And Blue (The Angry American) (
TTITLE0=Album Version)
TTITLE1=Troy Cassar Daley - Bar Room Roses
TTITLE2=Gretchen Wilson - When I Think About Cheatin'
TTITLE3=Graeme Connors - Pacifica
TTITLE4=Melinda Schneider (featuring The Australian Girls Choir) - Courageous
TTITLE5=The Slim Dusty Family (featuring David Kirkpatrick) - Old Purple
TTITLE6=Madonna Tassi - Man Of My Dreams
TTITLE7=Ricky Van Shelton - I'll Leave This World Loving You
TTITLE8=Rodney Atkins - 15 Minutes
TTITLE9=Beccy Cole - Poster Girl
TTITLE10=Crystal Shawanda - You Can Let Go
TTITLE11=Randy Travis - Look Heart, No Hands (Album Version)
TTITLE12=Trisha Yearwood - Believe Me Baby (I Lied) (Album Version)
TTITLE13=Kris Kristofferson - For The Times (Album Version)
TTITLE14=Freddy Fender - Before The Next Teardrop Falls (Single Version)
TTITLE15=Tom T. Hall - Old Dogs, Children And Watermelon Wine (Single Version)
TTITLE16=Steve Wariner - Holes In The Floor Of Heaven
TTITLE17=Highwayman - Silver Stallion (Album Version)
TTITLE18=Arthur Blanch - And My Dad
TTITLE19=Floyd Cramer - Last Date
EXTD=
EXTT0=
EXTT1=
EXTT2=
EXTT3=
EXTT4=
EXTT5=
EXTT6=
EXTT7=
EXTT8=
EXTT9=
EXTT10=
EXTT11=
EXTT12=
EXTT13=
EXTT14=
EXTT15=
EXTT16=
EXTT17=
EXTT18=
EXTT19=
PLAYORDER=
